# xmcd
#
# Track frame offsets:
#	150
#	15717
#	29552
#	49165
#	65052
#	80597
#	93692
#	105860
#	120290
#	131030
#	148402
#	165477
#	177445
#
# Disc length: 2476 seconds
#
# Revision: 1
# Processed by: cddbd v1.4PL0 Copyright (c) Steve Scherf et al.
# Submitted via: EasyCDDAExtractor 5.0.6
#
DISCID=b509aa0d
DTITLE=Greasy Beans - Real Live Music
DYEAR=1900
DGENRE=Bluegrass
TTITLE0=Fannie
TTITLE1=It's Funny
TTITLE2=I Left Her There to Wait For Me
TTITLE3=Lyndee
TTITLE4=Broken Hearted Woman
TTITLE5=Gaming Car on the Missouri
TTITLE6=Lineman's Blues
TTITLE7=Galax
TTITLE8=Alabama Blues
TTITLE9=Pistolerro
TTITLE10=Rocky Broad Shuffle
TTITLE11=Leavin' On That Evening Train
TTITLE12=Dog Patch Scramble
EXTD=
EXTT0=
EXTT1=
EXTT2=
EXTT3=
EXTT4=
EXTT5=
EXTT6=
EXTT7=
EXTT8=
EXTT9=
EXTT10=
EXTT11=
EXTT12=
PLAYORDER=
